<?xml version="1.0" standalone="no"?>
<!DOCTYPE svg PUBLIC "-//W3C//DTD SVG 20010904//EN"
 "http://www.w3.org/TR/2001/REC-SVG-20010904/DTD/svg10.dtd">
<svg version="1.0" xmlns="http://www.w3.org/2000/svg"
 width="453.000000pt" height="453.000000pt" viewBox="0 0 453.000000 453.000000"
 preserveAspectRatio="xMidYMid meet">
<metadata>
Created by potrace 1.11, written by Peter Selinger 2001-2013
</metadata>
<g transform="translate(0.000000,453.000000) scale(0.100000,-0.100000)"
fill="#000000" stroke="none">
<path d="M11 3128 c-9 -25 -8 -35 1 -44 7 -6 107 -82 223 -169 339 -256 529
-399 545 -412 14 -11 159 -121 605 -457 88 -66 167 -126 175 -133 8 -6 103
-77 210 -158 107 -80 202 -151 210 -158 8 -7 60 -46 115 -86 55 -41 114 -89
131 -106 l30 -33 530 401 c291 220 657 497 814 615 157 119 330 250 385 292
55 42 200 152 323 244 122 92 222 169 222 170 0 2 -5 17 -11 35 l-11 31 -933
0 -933 0 -185 -139 -185 -140 -184 139 -183 140 -942 0 -941 0 -11 -32z m4361
-59 c-9 -9 -111 -87 -227 -174 -115 -87 -273 -206 -350 -264 -77 -58 -142
-108 -145 -111 -13 -13 -240 -180 -246 -180 -6 0 -202 143 -244 178 -8 6 -116
88 -240 182 l-225 169 -25 -17 c-15 -9 -99 -73 -187 -141 -89 -67 -165 -121
-170 -120 -4 2 -8 53 -9 112 l0 108 30 22 c17 12 38 27 46 34 8 7 76 59 151
115 l136 103 861 0 c793 0 860 -1 844 -16z m-2711 -420 c38 -29 69 -55 69 -59
0 -5 -35 -34 -77 -66 -93 -69 -90 -67 -128 -97 -151 -119 -259 -196 -269 -190
-28 17 -136 106 -136 111 0 4 37 34 81 67 45 33 147 110 227 172 81 62 151
112 155 113 5 0 40 -23 78 -51z m220 -167 l76 -57 -101 -77 c-56 -42 -161
-122 -234 -177 -73 -56 -137 -101 -142 -101 -5 0 -15 6 -22 13 -7 7 -39 32
-71 56 l-57 43 106 82 c59 44 164 125 233 178 69 53 128 97 131 97 3 0 39 -25
81 -57z m181 -135 c7 -7 34 -28 60 -46 26 -19 45 -38 42 -42 -2 -5 -78 -63
-167 -131 -261 -197 -289 -218 -298 -218 -5 0 -40 24 -79 53 -60 45 -67 54
-55 66 8 8 112 90 232 181 224 171 228 173 265 137z m249 -189 c38 -29 69 -56
69 -60 0 -4 -15 -17 -32 -30 -30 -20 -347 -261 -407 -308 -24 -19 -24 -19 -67
12 -23 17 -58 43 -76 59 -27 24 -30 30 -18 39 8 5 112 83 230 174 118 91 219
165 224 165 5 1 40 -23 77 -51z"/>
</g>
</svg>
